HIERARCHY
ROOT Hips
{
	OFFSET 0.000000 35.082581 0.000000
	CHANNELS 6 Xposition Yposition Zposition Xrotation Yrotation Zrotation 
	JOINT Spine
	{
		OFFSET 0.000000 6.876099 0.125700
		CHANNELS 3 Xrotation Yrotation Zrotation
		JOINT Spine1
		{
			OFFSET 0.000000 5.730043 0.104720
			CHANNELS 3 Xrotation Yrotation Zrotation
			JOINT Spine1_split
			{
				OFFSET 0.000000 5.730043 0.104720
				CHANNELS 3 Xrotation Yrotation Zrotation
				JOINT Spine2
				{
					OFFSET 0.000000 5.730043 0.104720
					CHANNELS 3 Xrotation Yrotation Zrotation
					JOINT Neck
					{
						OFFSET 0.000000 10.314075 0.188496
						CHANNELS 3 Xrotation Yrotation Zrotation
						JOINT Head
						{
							OFFSET 0.000000 7.643700 -2.377400
							CHANNELS 3 Xrotation Yrotation Zrotation
							JOINT HeadTop_End
							{
								OFFSET 0.000000 43.788605 -13.619600
								CHANNELS 3 Xrotation Yrotation Zrotation
								End Site
								{
									OFFSET 0.000000 0.000000 0.000000
								}
							}
						}
					}
					JOINT LeftShoulder
					{
						OFFSET 2.196100 4.412489 0.087492
						CHANNELS 3 Xrotation Yrotation Zrotation
						JOINT LeftShoulder_split
						{
							OFFSET 2.196100 4.412489 0.087492
							CHANNELS 3 Xrotation Yrotation Zrotation
							JOINT LeftArm
							{
								OFFSET 8.771219 -2.981674 -0.026999
								CHANNELS 3 Xrotation Yrotation Zrotation
								JOINT LeftForeArm
								{
									OFFSET 8.512804 0.000000 -0.000000
									CHANNELS 3 Xrotation Yrotation Zrotation
									JOINT LeftHand
									{
										OFFSET 18.484802 0.000000 -0.000000
										CHANNELS 3 Xrotation Yrotation Zrotation
										JOINT LeftHandThumb1
										{
											OFFSET 2.499420 -1.158070 2.653252
											CHANNELS 3 Xrotation Yrotation Zrotation
											JOINT LeftHandThumb2
											{
												OFFSET 2.370079 -1.368366 1.368366
												CHANNELS 3 Xrotation Yrotation Zrotation
												JOINT LeftHandThumb3
												{
													OFFSET 2.676727 -1.545410 1.545409
													CHANNELS 3 Xrotation Yrotation Zrotation
													JOINT LeftHandThumb4
													{
														OFFSET 1.692226 -0.977005 0.977007
														CHANNELS 3 Xrotation Yrotation Zrotation
														End Site
														{
															OFFSET 0.000000 0.000000 0.000000
														}
													}
												}
											}
										}
										JOINT LeftHandIndex1
										{
											OFFSET 7.924831 -0.457527 2.345128
											CHANNELS 3 Xrotation Yrotation Zrotation
											JOINT LeftHandIndex2
											{
												OFFSET 3.643303 0.000000 0.000000
												CHANNELS 3 Xrotation Yrotation Zrotation
												JOINT LeftHandIndex3
												{
													OFFSET 3.810799 0.000000 0.000000
													CHANNELS 3 Xrotation Yrotation Zrotation
													JOINT LeftHandIndex4
													{
														OFFSET 2.403702 0.000000 0.000000
														CHANNELS 3 Xrotation Yrotation Zrotation
														End Site
														{
															OFFSET 0.000000 0.000000 0.000000
														}
													}
												}
											}
										}
										JOINT LeftHandMiddle1
										{
											OFFSET 8.563995 0.000000 -0.000000
											CHANNELS 3 Xrotation Yrotation Zrotation
											JOINT LeftHandMiddle2
											{
												OFFSET 3.861618 0.000000 0.000000
												CHANNELS 3 Xrotation Yrotation Zrotation
												JOINT LeftHandMiddle3
												{
													OFFSET 3.701603 0.000000 0.000000
													CHANNELS 3 Xrotation Yrotation Zrotation
													JOINT LeftHandMiddle4
													{
														OFFSET 2.322544 0.000000 0.000000
														CHANNELS 3 Xrotation Yrotation Zrotation
														End Site
														{
															OFFSET 0.000000 0.000000 0.000000
														}
													}
												}
											}
										}
										JOINT LeftHandRing1
										{
											OFFSET 8.426460 -0.424637 -3.286992
											CHANNELS 3 Xrotation Yrotation Zrotation
											JOINT LeftHandRing2
											{
												OFFSET 3.126408 0.000000 0.000000
												CHANNELS 3 Xrotation Yrotation Zrotation
												JOINT LeftHandRing3
												{
													OFFSET 3.085026 0.000000 0.000000
													CHANNELS 3 Xrotation Yrotation Zrotation
													JOINT LeftHandRing4
													{
														OFFSET 1.644005 0.000000 0.000000
														CHANNELS 3 Xrotation Yrotation Zrotation
														End Site
														{
															OFFSET 0.000000 0.000000 0.000000
														}
													}
												}
											}
										}
									}
								}
							}
						}
					}
					JOINT RightShoulder
					{
						OFFSET -2.196100 4.412496 0.070690
						CHANNELS 3 Xrotation Yrotation Zrotation
						JOINT RightShoulder_split
						{
							OFFSET -2.196100 4.412496 0.070690
							CHANNELS 3 Xrotation Yrotation Zrotation
							JOINT RightArm
							{
								OFFSET -8.771282 -2.981682 -0.094208
								CHANNELS 3 Xrotation Yrotation Zrotation
								JOINT RightForeArm
								{
									OFFSET -8.494598 0.000000 0.000000
									CHANNELS 3 Xrotation Yrotation Zrotation
									JOINT RightHand
									{
										OFFSET -18.483803 0.000000 0.000001
										CHANNELS 3 Xrotation Yrotation Zrotation
										JOINT RightHandThumb1
										{
											OFFSET -2.527351 -1.008072 2.575253
											CHANNELS 3 Xrotation Yrotation Zrotation
											JOINT RightHandThumb2
											{
												OFFSET -2.321518 -1.340328 1.340329
												CHANNELS 3 Xrotation Yrotation Zrotation
												JOINT RightHandThumb3
												{
													OFFSET -2.657753 -1.534454 1.534455
													CHANNELS 3 Xrotation Yrotation Zrotation
													JOINT RightHandThumb4
													{
														OFFSET -1.807510 -1.043568 1.043567
														CHANNELS 3 Xrotation Yrotation Zrotation
														End Site
														{
															OFFSET 0.000000 0.000000 0.000000
														}
													}
												}
											}
										}
										JOINT RightHandIndex1
										{
											OFFSET -8.811420 0.015533 2.887987
											CHANNELS 3 Xrotation Yrotation Zrotation
											JOINT RightHandIndex2
											{
												OFFSET -3.537502 0.000000 0.000000
												CHANNELS 3 Xrotation Yrotation Zrotation
												JOINT RightHandIndex3
												{
													OFFSET -3.356201 0.000000 0.000000
													CHANNELS 3 Xrotation Yrotation Zrotation
													JOINT RightHandIndex4
													{
														OFFSET -1.933098 0.000000 0.000000
														CHANNELS 3 Xrotation Yrotation Zrotation
														End Site
														{
															OFFSET 0.000000 0.000000 0.000000
														}
													}
												}
											}
										}
										JOINT RightHandMiddle1
										{
											OFFSET -8.178135 0.000000 0.000000
											CHANNELS 3 Xrotation Yrotation Zrotation
											JOINT RightHandMiddle2
											{
												OFFSET -3.901302 0.000000 0.000000
												CHANNELS 3 Xrotation Yrotation Zrotation
												JOINT RightHandMiddle3
												{
													OFFSET -3.909599 0.000000 0.000000
													CHANNELS 3 Xrotation Yrotation Zrotation
													JOINT RightHandMiddle4
													{
														OFFSET -2.376003 0.000000 0.000000
														CHANNELS 3 Xrotation Yrotation Zrotation
														End Site
														{
															OFFSET 0.000000 0.000000 0.000000
														}
													}
												}
											}
										}
										JOINT RightHandRing1
										{
											OFFSET -7.559013 0.014137 -2.865403
											CHANNELS 3 Xrotation Yrotation Zrotation
											JOINT RightHandRing2
											{
												OFFSET -3.449306 0.000000 0.000000
												CHANNELS 3 Xrotation Yrotation Zrotation
												JOINT RightHandRing3
												{
													OFFSET -3.362106 0.000000 0.000000
													CHANNELS 3 Xrotation Yrotation Zrotation
													JOINT RightHandRing4
													{
														OFFSET -2.076401 0.000000 0.000000
														CHANNELS 3 Xrotation Yrotation Zrotation
														End Site
														{
															OFFSET 0.000000 0.000000 0.000000
														}
													}
												}
											}
										}
									}
								}
							}
						}
					}
				}
			}
		}
	}
	JOINT LeftUpLeg
	{
		OFFSET 10.205400 -3.823500 0.155100
		CHANNELS 3 Xrotation Yrotation Zrotation
		JOINT LeftLeg
		{
			OFFSET 0.708757 -12.982077 0.567790
			CHANNELS 3 Xrotation Yrotation Zrotation
			JOINT LeftFoot
			{
				OFFSET -0.708756 -10.717838 -2.184338
				CHANNELS 3 Xrotation Yrotation Zrotation
				JOINT LeftToeBase
				{
					OFFSET 0.108149 -7.191104 7.560241
					CHANNELS 3 Xrotation Yrotation Zrotation
					JOINT LeftToe_End
					{
						OFFSET 0.070230 0.081724 4.490308
						CHANNELS 3 Xrotation Yrotation Zrotation
						End Site
						{
							OFFSET 0.000000 0.000000 0.000000
						}
					}
				}
			}
		}
	}
	JOINT RightUpLeg
	{
		OFFSET -10.205400 -3.823500 0.005500
		CHANNELS 3 Xrotation Yrotation Zrotation
		JOINT RightLeg
		{
			OFFSET -0.708756 -12.982134 0.610632
			CHANNELS 3 Xrotation Yrotation Zrotation
			JOINT RightFoot
			{
				OFFSET 0.708754 -10.717769 -1.945823
				CHANNELS 3 Xrotation Yrotation Zrotation
				JOINT RightToeBase
				{
					OFFSET -0.108140 -7.191069 7.372968
					CHANNELS 3 Xrotation Yrotation Zrotation
					JOINT RightToe_End
					{
						OFFSET -0.070227 0.081735 4.479403
						CHANNELS 3 Xrotation Yrotation Zrotation
						End Site
						{
							OFFSET 0.000000 0.000000 0.000000
						}
					}
				}
			}
		}
	}
}
MOTION
Frames: 5
Frame Time: 0.016667
-4.737468 32.727112 36.752201 23.390691 12.924675 -8.979946 9.539881 1.519870 -1.332320 -0.471744 1.782879 -0.358116 0.000000 0.000000 0.000000 -0.315421 2.367528 -0.492588 -11.049979 -0.300772 0.541619 -9.090189 2.277659 -2.833870 0.000002 -0.000001 0.000000 0.804509 -1.055563 -19.731243 0.000000 0.000000 0.000000 11.314132 -4.215706 -51.272557 -0.000001 -61.671813 0.000011 -22.443218 13.772011 -17.933471 74.823998 -40.508114 61.030295 25.606299 5.176764 -82.902241 43.119992 21.632203 -34.957431 -0.000006 0.000003 -0.000003 5.901625 7.863763 -80.435518 5.375064 5.831743 -85.325708 1.695962 4.123095 -44.703349 -0.000000 -0.000000 -0.000003 5.020592 8.216397 -91.029367 4.694988 5.736112 -78.585069 3.096851 5.164287 -61.877484 0.000001 0.000000 -0.000001 4.404979 8.246857 -91.688398 5.835741 5.851053 -89.849759 1.966862 4.379200 -48.356698 0.000001 -0.000000 0.000003 0.318350 6.828683 17.985679 0.000000 0.000000 0.000000 14.222249 -10.989020 46.953842 0.000027 67.377808 -0.000045 -3.079474 -19.120698 7.109483 47.809736 35.835380 -5.333819 34.631327 -33.014501 35.094612 43.708563 -16.938056 39.158697 -0.000002 -0.000001 0.000003 6.363554 -7.114820 84.445126 4.420402 -4.651155 87.082494 2.537488 -4.147772 62.900155 -0.000002 0.000003 -0.000002 7.913292 -6.614841 96.213494 4.359611 -4.647675 86.332676 2.916761 -4.320414 68.033902 -0.000002 0.000002 0.000003 5.619616 -6.842390 101.279985 3.622446 -4.541001 77.149104 2.863062 -4.298419 67.319144 0.000002 -0.000001 0.000001 -34.736939 -2.692708 -6.197279 37.603651 -4.356066 -3.454558 -25.507219 1.883394 11.776307 -0.349013 0.000006 0.000000 0.000000 -0.000000 0.000000 -51.193224 -7.893715 -11.727032 56.095090 -5.373855 0.987651 1.243476 -6.024152 16.866763 -22.468782 0.257795 -1.296070 0.000000 0.000000 0.000000 
-4.691422 32.645035 37.964943 23.651347 13.548052 -9.218744 9.410585 1.206167 -1.237775 -0.422842 1.770881 -0.370542 0.000000 0.000000 0.000000 -0.273311 2.351415 -0.497368 -11.032303 -0.263003 0.489892 -9.196466 2.170657 -2.889698 0.000001 -0.000002 0.000000 0.828894 -1.055390 -19.581370 0.000000 0.000000 0.000000 11.301105 -4.179474 -51.475174 0.000029 -61.665516 0.000045 -22.424833 13.662205 -18.020846 74.823998 -40.508114 61.030302 25.831921 5.594319 -83.199081 43.102804 21.672904 -34.905788 -0.000006 -0.000002 -0.000002 5.804516 7.842042 -80.834442 5.406396 5.834207 -85.633961 1.681290 4.108251 -44.499051 -0.000000 0.000001 0.000000 5.050375 8.220849 -91.320305 4.691305 5.735365 -78.548139 3.085164 5.158039 -61.747471 0.000000 0.000002 0.000001 4.420643 8.250816 -91.840602 5.847105 5.851064 -89.961214 1.975216 4.386583 -48.466076 0.000001 0.000001 0.000001 0.322463 6.792948 17.816125 0.000000 0.000000 0.000000 14.532752 -11.075071 47.066031 -0.000001 67.339620 -0.000005 -3.353840 -18.746270 7.238121 47.809740 35.835380 -5.333819 34.631334 -33.014488 35.094605 43.484410 -17.047840 38.914586 -0.000000 0.000002 -0.000000 6.477986 -7.129492 84.356805 4.420352 -4.651157 87.082050 2.536507 -4.147267 62.886528 -0.000001 0.000001 -0.000002 7.925224 -6.629777 95.875591 4.359723 -4.647671 86.333980 2.916718 -4.320394 68.033124 -0.000002 0.000000 -0.000002 5.608974 -6.844484 101.146502 3.622727 -4.541062 77.152765 2.865447 -4.299412 67.350986 0.000000 -0.000002 -0.000001 -31.648440 -4.551555 -5.686144 36.523221 -3.365603 -3.796423 -27.768834 1.375563 11.051190 -0.358347 0.000014 -0.000001 0.000000 0.000000 -0.000000 -54.707934 -7.146082 -12.220436 54.008485 -5.586862 0.662865 2.361470 -6.910122 15.880577 -17.439472 0.099825 -1.114090 0.000000 0.000001 -0.000000 
-4.634629 32.492409 39.208439 23.910761 14.036073 -9.372141 9.238822 0.892497 -1.244978 -0.374514 1.775974 -0.381382 0.000000 0.000000 0.000000 -0.232042 2.353976 -0.505842 -11.041534 -0.226212 0.447394 -9.369443 2.134337 -2.939959 0.000001 0.000000 0.000000 0.850988 -1.055161 -19.445576 0.000000 0.000000 0.000000 11.378939 -4.063370 -51.572627 0.000024 -61.739637 0.000015 -22.565927 13.410608 -18.078251 74.823998 -40.508110 61.030288 25.822092 5.576446 -83.186889 43.067269 21.683351 -34.871637 -0.000003 0.000003 -0.000002 5.795679 7.839591 -80.912566 5.409748 5.834472 -85.666910 1.681577 4.108553 -44.503088 0.000000 -0.000000 -0.000002 5.057581 8.221896 -91.390882 4.690766 5.735261 -78.542722 3.083725 5.157287 -61.731673 0.000000 -0.000000 -0.000002 4.426156 8.252200 -91.894403 5.849533 5.851076 -89.985038 1.974919 4.386328 -48.462228 0.000001 -0.000001 0.000002 0.330599 6.717038 17.586545 0.000000 0.000000 0.000000 14.906743 -11.096831 47.280741 0.000022 67.421173 -0.000022 -3.553414 -18.321006 7.173609 47.809740 35.835380 -5.333822 34.631327 -33.014491 35.094605 43.382069 -17.096599 38.803814 0.000002 -0.000000 0.000007 6.464556 -7.132934 84.233868 4.420333 -4.651160 87.081770 2.537503 -4.147775 62.900496 -0.000002 -0.000003 -0.000001 7.910797 -6.635643 95.783732 4.359823 -4.647687 86.335224 2.916305 -4.320224 68.027946 -0.000000 -0.000003 0.000000 5.607749 -6.844732 101.131053 3.623034 -4.541140 77.156467 2.865016 -4.299228 67.345344 -0.000002 -0.000000 -0.000001 -28.330762 -6.061368 -5.111896 35.364879 -2.255379 -3.997082 -30.130164 0.695230 10.216194 -0.363122 0.000000 -0.000000 0.000000 -0.000001 0.000000 -58.865275 -5.991298 -12.588009 51.988743 -5.334952 0.545833 4.181659 -7.911207 15.169579 -11.716625 0.011165 -0.864671 -0.000001 0.000001 -0.000000 
-4.592434 32.233097 40.497040 24.080590 14.438152 -9.348873 9.051557 0.579128 -1.472160 -0.327086 1.791588 -0.387871 0.000000 0.000000 0.000000 -0.191802 2.389386 -0.519249 -11.094798 -0.194236 0.432496 -9.618915 2.159158 -3.032440 -0.000000 0.000001 0.000000 0.870930 -1.054923 -19.322989 0.000000 0.000000 0.000000 11.546877 -4.117302 -51.490901 0.000028 -61.781438 0.000029 -22.780962 13.089996 -18.094634 74.823985 -40.508110 61.030302 25.742790 5.432251 -83.085481 43.029536 21.690189 -34.839593 -0.000001 0.000000 -0.000006 5.812358 7.842450 -80.897259 5.404961 5.834101 -85.619864 1.686201 4.113240 -44.567613 0.000000 0.000001 -0.000002 5.058250 8.221989 -91.397220 4.690533 5.735225 -78.540468 3.085314 5.158115 -61.749063 0.000001 0.000000 0.000001 4.428751 8.252855 -91.919477 5.849373 5.851073 -89.983398 1.972119 4.383851 -48.425604 -0.000000 0.000001 0.000004 0.359536 6.327645 17.328646 0.000000 0.000000 0.000000 15.284188 -11.054869 47.591177 -0.000006 67.686990 0.000008 -3.676057 -17.827373 7.043259 47.809740 35.835380 -5.333825 34.631334 -33.014491 35.094605 43.315533 -17.127560 38.732278 -0.000001 -0.000000 -0.000000 6.413941 -7.132851 84.101280 4.420314 -4.651161 87.081545 2.539113 -4.148594 62.922442 0.000003 -0.000000 -0.000002 7.888765 -6.638772 95.763637 4.359916 -4.647688 86.336310 2.915667 -4.319965 68.019136 0.000001 -0.000002 0.000001 5.609248 -6.844426 101.149904 3.623324 -4.541209 77.160155 2.863787 -4.298721 67.328849 -0.000001 -0.000004 -0.000004 -24.736087 -7.385437 -4.595383 34.276048 -1.077229 -4.045545 -32.746748 0.074092 9.253977 -0.352335 -0.000002 -0.000001 0.000000 0.000000 -0.000000 -63.354997 -4.016830 -12.876478 50.205729 -7.135981 0.156435 7.033728 -6.469829 15.617263 -10.971192 0.000072 0.000009 0.000000 -0.000001 -0.000000 
-4.546169 31.936924 41.696899 24.212469 14.843596 -9.222672 8.872387 0.249962 -1.817704 -0.280808 1.810331 -0.395187 0.000000 0.000000 0.000000 -0.152857 2.438998 -0.533950 -11.165461 -0.164563 0.434153 -9.915524 2.229086 -3.134631 0.000001 0.000001 -0.000000 0.890507 -1.054650 -19.203096 0.000000 0.000000 0.000000 11.762123 -4.398501 -51.352975 -0.000001 -61.704359 -0.000005 -23.028280 12.724769 -18.118332 74.823998 -40.508114 61.030295 25.670018 5.300347 -82.993472 42.939227 21.702421 -34.766766 -0.000005 -0.000003 -0.000002 5.815411 7.843587 -80.848321 5.405080 5.834117 -85.621052 1.692781 4.119878 -44.659130 -0.000001 0.000001 -0.000002 5.060242 8.222274 -91.416693 4.690547 5.735213 -78.540516 3.084633 5.157758 -61.741693 0.000000 -0.000001 -0.000003 4.431533 8.253549 -91.946429 5.850508 5.851073 -89.994586 1.969396 4.381446 -48.389995 0.000001 0.000001 0.000000 0.386615 5.917537 17.090631 0.000000 0.000000 0.000000 15.677229 -11.013491 47.931771 0.000048 67.967110 -0.000041 -3.782888 -17.328021 6.838931 47.809736 35.835373 -5.333823 34.631327 -33.014491 35.094605 43.412361 -17.078656 38.840291 -0.000001 -0.000002 -0.000002 6.328346 -7.137843 83.727150 4.420302 -4.651159 87.081299 2.539258 -4.148678 62.924880 -0.000003 -0.000002 -0.000000 7.851304 -6.644061 95.729753 4.359980 -4.647712 86.337156 2.915019 -4.319690 68.010304 0.000002 0.000001 -0.000003 5.612297 -6.843836 101.188153 3.623610 -4.541272 77.163905 2.862069 -4.297993 67.305791 0.000001 -0.000001 0.000002 -21.143431 -8.656332 -4.042662 32.822471 0.100458 -4.350942 -34.952182 -0.584978 8.429025 -0.344517 0.000001 0.000002 0.000000 0.000001 -0.000000 -67.127707 -1.604974 -12.958207 49.463038 -8.275453 0.425112 8.356545 -5.946640 16.555694 -10.518195 0.000074 0.000007 0.000000 0.000000 0.000000 
